<svg width="44" height="44" viewBox="0 0 44 44" fill="none" xmlns="http://www.w3.org/2000/svg">
<rect x="0.5" y="0.5" width="43" height="43" rx="7.5" fill="#F9D8D8" stroke="#E55C5C"/>
<path d="M33.3665 15.5345C32.8898 15.0578 32.1198 15.0578 31.6432 15.5345L26.0332 21.1445C25.5565 21.6211 24.7865 21.6211 24.3098 21.1445L22.8798 19.7145C21.4498 18.2845 19.1276 18.2845 17.6976 19.7145L12.5887 24.8111L10.8287 23.0511C10.4498 22.6722 9.78984 22.9411 9.78984 23.4789V28.7222C9.77762 29.0645 10.0465 29.3333 10.3887 29.3333H15.6321C16.1821 29.3333 16.451 28.6733 16.0598 28.2945L14.2998 26.5345L19.3965 21.4378C19.8732 20.9611 20.6432 20.9611 21.1198 21.4378L22.5498 22.8678C23.9798 24.2978 26.3021 24.2978 27.7321 22.8678L33.3665 17.2578C33.831 16.7811 33.831 15.9989 33.3665 15.5345Z" fill="#E55C5C"/>
</svg>
