<svg width="44" height="44" viewBox="0 0 44 44" fill="none" xmlns="http://www.w3.org/2000/svg">
<rect x="0.5" y="0.5" width="43" height="43" rx="7.5" fill="#D3DCFC" stroke="#476BF0"/>
<path d="M9.77789 32.9999H22.0001C22.6723 32.9999 23.2223 33.5499 23.2223 34.2222C23.2223 34.8944 22.6723 35.4444 22.0001 35.4444H9.77789C9.10566 35.4444 8.55566 34.8944 8.55566 34.2222C8.55566 33.5499 9.10566 32.9999 9.77789 32.9999ZM13.7379 17.1966L17.1968 13.7377L32.7557 29.2966C33.709 30.2499 33.709 31.8022 32.7557 32.7555C31.8023 33.7088 30.2501 33.7088 29.2968 32.7555L13.7379 17.1966ZM24.1146 10.2788L27.5734 13.7377C28.5268 14.691 28.5268 16.2433 27.5734 17.1966L25.8379 18.9322L18.9323 12.0144L20.6557 10.291C21.609 9.32548 23.1612 9.32548 24.1146 10.2788ZM12.0146 18.9199L18.9323 25.8377L17.209 27.561C16.2557 28.5144 14.7034 28.5144 13.7501 27.561L10.2912 24.1022C9.33789 23.1488 9.33789 21.5966 10.2912 20.6433L12.0146 18.9199Z" fill="#476BF0"/>
</svg>
