<svg width="44" height="44" viewBox="0 0 44 44" fill="none" xmlns="http://www.w3.org/2000/svg">
<rect x="0.5" y="0.5" width="43" height="43" rx="7.5" fill="#DBE8D3" stroke="#6A9F48"/>
<path d="M10.6335 28.4656C11.1102 28.9422 11.8802 28.9422 12.3568 28.4656L17.9668 22.8556C18.4435 22.3789 19.2135 22.3789 19.6902 22.8556L21.1202 24.2856C22.5502 25.7156 24.8724 25.7156 26.3024 24.2856L31.4113 19.1889L33.1713 20.9489C33.5502 21.3278 34.2102 21.0589 34.2102 20.5211V15.2778C34.2224 14.9356 33.9535 14.6667 33.6113 14.6667H28.3679C27.8179 14.6667 27.549 15.3267 27.9402 15.7056L29.7002 17.4656L24.6035 22.5622C24.1268 23.0389 23.3568 23.0389 22.8802 22.5622L21.4502 21.1322C20.0202 19.7022 17.6979 19.7022 16.2679 21.1322L10.6335 26.7422C10.169 27.2189 10.169 28.0011 10.6335 28.4656Z" fill="#6A9F48"/>
</svg>
