<svg width="131" height="125" viewBox="0 0 131 125" fill="none" xmlns="http://www.w3.org/2000/svg">
<path d="M113.766 99.1336C116.706 94.4173 118.36 88.9048 117.993 82.8411C117.196 69.6723 106.723 58.5248 93.6764 57.1161C77.0164 55.2786 62.9289 68.2023 62.9289 84.4948C62.9289 99.7461 75.2402 112.057 90.4302 112.057C95.8202 112.057 100.843 110.465 105.069 107.77L119.83 122.531C122.219 124.92 126.139 124.92 128.528 122.531C130.916 120.142 130.916 116.222 128.528 113.834L113.766 99.1336ZM90.4914 99.8073C82.0389 99.8073 75.1789 92.9473 75.1789 84.4948C75.1789 76.0423 82.0389 69.1823 90.4914 69.1823C98.9439 69.1823 105.804 76.0423 105.804 84.4948C105.804 92.9473 98.9439 99.8073 90.4914 99.8073ZM88.2864 47.7448C83.7539 47.8673 79.4051 48.8473 75.4239 50.5011L72.0552 45.4173L53.1902 76.1036C50.9852 79.6561 46.0239 80.0236 43.3289 76.8998L30.3439 61.7711L11.6014 91.7836C9.70265 94.7848 5.66015 95.5811 2.7814 93.4986C0.208903 91.5998 -0.526097 88.0473 1.1889 85.2911L24.3414 48.2348C26.5464 44.7436 31.5077 44.3761 34.2027 47.4998L47.1264 62.5673L66.6039 30.9011C68.9314 27.1036 74.4439 26.9811 76.8939 30.7173L88.2864 47.7448ZM104.15 50.8073C100.23 49.0923 96.0039 48.0511 91.5939 47.8061L119.401 3.76732C121.3 0.766069 125.343 0.0310692 128.16 2.11357C130.794 4.01232 131.468 7.62607 129.753 10.3211L104.15 50.8073Z" fill="#3278FF"/>
</svg>
